# xmcd
#
# Track frame offsets:
#	150
#	13792
#	27420
#	39920
#	53240
#	67412
#	82210
#	93865
#	106877
#	122395
#
# Disc length: 1942 seconds
#
# Revision: 0
# Processed by: cddbd v1.5.2PL0 Copyright (c) Steve Scherf et al.
# Submitted via: EasyCDDAExtractor 15.2.0.1
#
DISCID=7f07940a
DTITLE=Various Artist - Blues Roots Vol. 2
DYEAR=2000
DGENRE=Blues
TTITLE0=Loius Armstrong - I Gotta Right To Sing The Blues
TTITLE1=Mildred Bailey - Rockin' Chair
TTITLE2=Big Joe Williams - Baby Please Don't Go
TTITLE3=Ethel Waters w. Ed Mallory - Baby, What Else Can I Do
TTITLE4=Earl Hines and Billy Eckstine - Stormy Monday Blues
TTITLE5=Alberta Hunter - Beale Street Blues
TTITLE6=Jazz Gillum - Good Old 51 Highway
TTITLE7=Hazel Scott - Mighty Like The Blues
TTITLE8=Cab Calloway - Minnie The Moocher
TTITLE9=Jimmy Rushing - Fina And Mellow
EXTD=
EXTT0=
EXTT1=
EXTT2=
EXTT3=
EXTT4=
EXTT5=
EXTT6=
EXTT7=
EXTT8=
EXTT9=
PLAYORDER=
